<?xml version="1.0" encoding="utf-8"?>
<!-- Generator: Adobe Illustrator 26.2.1, SVG Export Plug-In . SVG Version: 6.00 Build 0)  -->
<svg version="1.1" id="Layer_1" xmlns="http://www.w3.org/2000/svg" xmlns:xlink="http://www.w3.org/1999/xlink" x="0px" y="0px"
	 viewBox="0 0 48 48" style="enable-background:new 0 0 48 48;" xml:space="preserve">
<style type="text/css">
	.st0{fill:#F76957;stroke:#F76957;stroke-miterlimit:10;}
	.st1{fill:#F76957;}
</style>
<path class="st0" d="M22.6,34h3V22h-3V34z M24,18.3c0.5,0,0.9-0.1,1.2-0.4s0.5-0.7,0.5-1.1c0-0.5-0.2-0.9-0.5-1.2S24.5,15,24,15
	s-0.9,0.2-1.2,0.5s-0.5,0.7-0.5,1.2c0,0.5,0.2,0.9,0.5,1.1S23.5,18.3,24,18.3z M24,44c-2.8,0-5.5-0.5-7.9-1.5
	c-2.4-1-4.6-2.4-6.4-4.2s-3.2-3.9-4.2-6.4S4,26.8,4,24c0-2.8,0.5-5.4,1.5-7.9S8,11.6,9.8,9.8s3.9-3.2,6.4-4.2S21.2,4,24,4
	c2.8,0,5.4,0.5,7.9,1.6s4.5,2.4,6.4,4.2c1.8,1.8,3.2,3.9,4.2,6.3s1.5,5,1.5,7.9c0,2.8-0.5,5.5-1.5,7.9s-2.5,4.6-4.2,6.4
	c-1.8,1.8-3.9,3.2-6.4,4.2C29.4,43.5,26.8,44,24,44z M24,24L24,24L24,24L24,24L24,24L24,24L24,24L24,24L24,24z M24,41
	c4.7,0,8.7-1.7,12-5s5-7.3,5-12s-1.7-8.7-5-12s-7.3-5-12-5s-8.7,1.7-12,5s-5,7.3-5,12s1.7,8.7,5,12S19.3,41,24,41z"/>
<path class="st1" d="M-144-29c2.6,0,4.9,0.9,6.7,2.8c1.8,1.9,2.8,4.1,2.8,6.7v4.8h3.5c0.8,0,1.5,0.3,2.1,0.9s0.9,1.3,0.9,2.1V10
	c0,0.8-0.3,1.5-0.9,2.1s-1.3,0.9-2.1,0.9h-26c-0.8,0-1.5-0.3-2.1-0.9s-0.9-1.3-0.9-2.1v-21.7c0-0.8,0.3-1.5,0.9-2.1s1.3-0.9,2.1-0.9
	h3.5v-4.8c0-2.6,0.9-4.9,2.8-6.7C-148.9-28.1-146.6-29-144-29z M-144-26c-1.8,0-3.3,0.6-4.6,1.9c-1.3,1.3-1.9,2.8-1.9,4.6v4.8h13
	v-4.8c0-1.8-0.6-3.3-1.9-4.6C-140.7-25.4-142.2-26-144-26z M-157,10h26l0,0l0,0v-21.7l0,0l0,0h-26l0,0l0,0V10L-157,10L-157,10z
	 M-144-4.7c-1.1,0-2,0.4-2.7,1.2c-0.8,0.8-1.1,1.7-1.1,2.7c0,1,0.4,1.9,1.1,2.7S-145.1,3-144,3s2-0.4,2.7-1.1s1.1-1.6,1.1-2.7
	c0-1-0.4-1.9-1.1-2.7C-142-4.3-142.9-4.7-144-4.7z M-157-11.7L-157-11.7L-157-11.7V10l0,0l0,0l0,0l0,0V-11.7L-157-11.7L-157-11.7z"
	/>
</svg>
