<?xml version="1.0" encoding="utf-8"?>
<!-- Generator: Adobe Illustrator 26.2.1, SVG Export Plug-In . SVG Version: 6.00 Build 0)  -->
<svg version="1.1" id="Layer_1" xmlns="http://www.w3.org/2000/svg" xmlns:xlink="http://www.w3.org/1999/xlink" x="0px" y="0px"
	 viewBox="0 0 48 48" style="enable-background:new 0 0 48 48;" xml:space="preserve">
<style type="text/css">
	.st0{fill:#F76957;stroke:#F76957;stroke-miterlimit:10;}
	.st1{fill:#F76957;}
</style>
<path class="st0" d="M14.5,17v-3H42v3H14.5z M14.5,25.5v-3H42v3H14.5z M14.5,34v-3H42v3H14.5z M7.5,17c-0.4,0-0.8-0.1-1.1-0.4
	C6.1,16.3,6,15.9,6,15.5s0.1-0.8,0.4-1.1C6.7,14.1,7.1,14,7.5,14s0.8,0.1,1.1,0.4C8.9,14.7,9,15.1,9,15.5s-0.1,0.8-0.4,1.1
	C8.3,16.9,7.9,17,7.5,17z M7.5,25.5c-0.4,0-0.8-0.1-1.1-0.4C6.1,24.8,6,24.4,6,24s0.1-0.8,0.4-1.1c0.3-0.3,0.6-0.4,1.1-0.4
	s0.8,0.1,1.1,0.4C8.9,23.2,9,23.6,9,24s-0.1,0.8-0.4,1.1C8.3,25.4,7.9,25.5,7.5,25.5z M7.5,34c-0.4,0-0.8-0.1-1.1-0.4
	C6.1,33.3,6,32.9,6,32.5s0.1-0.8,0.4-1.1C6.7,31.1,7.1,31,7.5,31s0.8,0.1,1.1,0.4C8.9,31.7,9,32.1,9,32.5s-0.1,0.8-0.4,1.1
	C8.3,33.9,7.9,34,7.5,34z"/>
<path class="st1" d="M-30,69.7c2.6,0,4.9,0.9,6.7,2.8s2.8,4.1,2.8,6.7V84h3.5c0.8,0,1.5,0.3,2.1,0.9S-14,86.2-14,87v21.7
	c0,0.8-0.3,1.5-0.9,2.1c-0.6,0.6-1.3,0.9-2.1,0.9h-26c-0.8,0-1.5-0.3-2.1-0.9c-0.6-0.6-0.9-1.3-0.9-2.1V87c0-0.8,0.3-1.5,0.9-2.1
	S-43.8,84-43,84h3.5v-4.8c0-2.6,0.9-4.9,2.8-6.7C-34.9,70.6-32.6,69.7-30,69.7z M-30,72.7c-1.8,0-3.3,0.6-4.6,1.9
	c-1.3,1.3-1.9,2.8-1.9,4.6V84h13v-4.8c0-1.8-0.6-3.3-1.9-4.6C-26.7,73.3-28.2,72.7-30,72.7z M-43,108.7h26l0,0l0,0V87l0,0l0,0h-26
	l0,0l0,0V108.7L-43,108.7L-43,108.7z M-30,94c-1.1,0-2,0.4-2.7,1.2c-0.8,0.8-1.1,1.7-1.1,2.7c0,1,0.4,1.9,1.1,2.7
	c0.7,0.7,1.7,1.1,2.7,1.1s2-0.4,2.7-1.1c0.8-0.7,1.1-1.6,1.1-2.7c0-1-0.4-1.9-1.1-2.7C-28,94.4-28.9,94-30,94z M-43,87L-43,87
	L-43,87v21.7l0,0l0,0l0,0l0,0V87L-43,87L-43,87z"/>
</svg>
